<svg width="1024" height="1024" viewBox="0 0 1024 1024" fill="none" xmlns="http://www.w3.org/2000/svg">
<rect x="101" y="101" width="823" height="823" rx="176" fill="#191A29"/>
<rect x="101" y="101" width="823" height="823" rx="176" fill="url(#paint0_linear_104_59)" fill-opacity="0.08"/>
<path fill-rule="evenodd" clip-rule="evenodd" d="M254.383 254.836C258.456 250.736 265.06 250.736 269.133 254.836L331.709 317.839C335.782 321.939 335.782 328.588 331.709 332.688L269.133 395.69C265.06 399.791 258.456 399.791 254.383 395.69C250.311 391.59 250.311 384.941 254.383 380.841L309.585 325.263L254.383 269.686C250.311 265.586 250.311 258.937 254.383 254.836Z" fill="#90DF76"/>
<path fill-rule="evenodd" clip-rule="evenodd" d="M254.383 395.69C250.311 391.59 250.311 384.941 254.383 380.841L309.585 325.263L254.383 269.686C250.311 265.586 250.311 258.937 254.383 254.836C258.456 250.736 265.06 250.736 269.133 254.836L331.709 317.839C335.782 321.939 335.782 328.588 331.709 332.688L269.133 395.69C265.06 399.791 258.456 399.791 254.383 395.69ZM298.31 325.263L248.707 275.324C241.536 268.103 241.536 256.419 248.707 249.199C255.909 241.948 267.607 241.948 274.809 249.199L337.385 312.201C344.557 319.421 344.557 331.106 337.385 338.326L274.809 401.328C267.607 408.578 255.909 408.578 248.707 401.328C241.536 394.108 241.536 382.423 248.707 375.203L298.31 325.263Z" fill="#90DF76"/>
<g opacity="0.5">
<path d="M386.522 388.171C386.522 382.319 391.265 377.576 397.117 377.576H499.093C504.945 377.576 509.688 382.319 509.688 388.171C509.688 394.022 504.945 398.766 499.093 398.766H397.117C391.265 398.766 386.522 394.022 386.522 388.171Z" fill="#90DF76"/>
<path fill-rule="evenodd" clip-rule="evenodd" d="M397.117 369.576H499.093C509.363 369.576 517.688 377.901 517.688 388.171C517.688 398.441 509.363 406.766 499.093 406.766H397.117C386.847 406.766 378.522 398.441 378.522 388.171C378.522 377.901 386.847 369.576 397.117 369.576ZM397.117 377.576C391.265 377.576 386.522 382.319 386.522 388.171C386.522 394.022 391.265 398.766 397.117 398.766H499.093C504.945 398.766 509.688 394.022 509.688 388.171C509.688 382.319 504.945 377.576 499.093 377.576H397.117Z" fill="#90DF76"/>
</g>
<defs>
<linearGradient id="paint0_linear_104_59" x1="512.5" y1="101" x2="512.5" y2="924" gradientUnits="userSpaceOnUse">
<stop stop-color="white"/>
<stop offset="1"/>
</linearGradient>
</defs>
</svg>
